<svg width="100" height="100" viewBox="0 0 100 100" fill="none" xmlns="http://www.w3.org/2000/svg">
<g clip-path="url(#clip0_420_2)">
<rect width="100" height="100" fill="#FAFAFA"/>
<path d="M22.2211 45.6H24.5971V54H22.2211V45.6ZM18.9811 54H16.6051V45.6H18.9811V54ZM22.3891 50.724H18.8131V48.756H22.3891V50.724ZM28.586 48.852H32.486V50.628H28.586V48.852ZM28.754 52.164H33.146V54H26.402V45.6H32.99V47.436H28.754V52.164ZM36.3596 54V46.956L36.8876 47.484H33.7796V45.6H41.2676V47.484H38.1716L38.6996 46.956V54H36.3596ZM50.4751 53.496C49.3551 53.496 48.4071 53.352 47.6311 53.064C46.8631 52.776 46.2791 52.356 45.8791 51.804C45.4871 51.244 45.2911 50.568 45.2911 49.776C45.2911 48.976 45.4871 48.3 45.8791 47.748C46.2791 47.188 46.8671 46.764 47.6431 46.476C48.4191 46.188 49.3671 46.044 50.4871 46.044C50.5031 46.044 50.5551 46.044 50.6431 46.044C50.7391 46.044 50.8351 46.044 50.9311 46.044C51.0271 46.044 51.0791 46.044 51.0871 46.044C52.1991 46.044 53.1311 46.192 53.8831 46.488C54.6431 46.776 55.2191 47.2 55.6111 47.76C56.0031 48.312 56.1991 48.984 56.1991 49.776C56.1991 50.56 56.0071 51.232 55.6231 51.792C55.2471 52.344 54.6871 52.768 53.9431 53.064C53.1991 53.352 52.2831 53.496 51.1951 53.496C51.1791 53.496 51.1151 53.496 51.0031 53.496C50.8911 53.496 50.7831 53.496 50.6791 53.496C50.5751 53.496 50.5071 53.496 50.4751 53.496ZM50.6911 51.672C50.7151 51.672 50.7511 51.672 50.7991 51.672C50.8551 51.672 50.8951 51.672 50.9191 51.672C51.6071 51.672 52.1711 51.604 52.6111 51.468C53.0511 51.332 53.3751 51.124 53.5831 50.844C53.7911 50.564 53.8951 50.204 53.8951 49.764C53.8951 49.316 53.7871 48.956 53.5711 48.684C53.3551 48.412 53.0311 48.212 52.5991 48.084C52.1671 47.948 51.6151 47.88 50.9431 47.88C50.9191 47.88 50.8791 47.88 50.8231 47.88C50.7751 47.88 50.7311 47.88 50.6911 47.88C49.9711 47.88 49.3831 47.944 48.9271 48.072C48.4711 48.2 48.1351 48.404 47.9191 48.684C47.7031 48.956 47.5951 49.32 47.5951 49.776C47.5951 50.224 47.7111 50.588 47.9431 50.868C48.1831 51.148 48.5311 51.352 48.9871 51.48C49.4511 51.608 50.0191 51.672 50.6911 51.672ZM49.6591 54.396V45.204H51.8311V54.396H49.6591ZM61.5612 54.168C60.8892 54.168 60.2692 54.06 59.7012 53.844C59.1332 53.628 58.6372 53.324 58.2132 52.932C57.7972 52.532 57.4732 52.068 57.2412 51.54C57.0092 51.012 56.8932 50.432 56.8932 49.8C56.8932 49.168 57.0092 48.588 57.2412 48.06C57.4732 47.532 57.7972 47.072 58.2132 46.68C58.6372 46.28 59.1332 45.972 59.7012 45.756C60.2692 45.54 60.8892 45.432 61.5612 45.432C62.2412 45.432 62.8612 45.54 63.4212 45.756C63.9892 45.972 64.4812 46.28 64.8972 46.68C65.3132 47.072 65.6372 47.532 65.8692 48.06C66.1092 48.588 66.2292 49.168 66.2292 49.8C66.2292 50.432 66.1092 51.016 65.8692 51.552C65.6372 52.08 65.3132 52.54 64.8972 52.932C64.4812 53.324 63.9892 53.628 63.4212 53.844C62.8612 54.06 62.2412 54.168 61.5612 54.168ZM61.5612 52.2C61.8812 52.2 62.1772 52.144 62.4492 52.032C62.7292 51.92 62.9692 51.76 63.1692 51.552C63.3772 51.336 63.5372 51.08 63.6492 50.784C63.7692 50.488 63.8292 50.16 63.8292 49.8C63.8292 49.432 63.7692 49.104 63.6492 48.816C63.5372 48.52 63.3772 48.268 63.1692 48.06C62.9692 47.844 62.7292 47.68 62.4492 47.568C62.1772 47.456 61.8812 47.4 61.5612 47.4C61.2412 47.4 60.9412 47.456 60.6612 47.568C60.3892 47.68 60.1492 47.844 59.9412 48.06C59.7412 48.268 59.5812 48.52 59.4612 48.816C59.3492 49.104 59.2932 49.432 59.2932 49.8C59.2932 50.16 59.3492 50.488 59.4612 50.784C59.5812 51.08 59.7412 51.336 59.9412 51.552C60.1492 51.76 60.3892 51.92 60.6612 52.032C60.9412 52.144 61.2412 52.2 61.5612 52.2ZM69.2424 54V46.956L69.7704 47.484H66.6624V45.6H74.1504V47.484H71.0544L71.5824 46.956V54H69.2424ZM79.2565 54.168C78.5845 54.168 77.9645 54.06 77.3965 53.844C76.8285 53.628 76.3325 53.324 75.9085 52.932C75.4925 52.532 75.1685 52.068 74.9365 51.54C74.7045 51.012 74.5885 50.432 74.5885 49.8C74.5885 49.168 74.7045 48.588 74.9365 48.06C75.1685 47.532 75.4925 47.072 75.9085 46.68C76.3325 46.28 76.8285 45.972 77.3965 45.756C77.9645 45.54 78.5845 45.432 79.2565 45.432C79.9365 45.432 80.5565 45.54 81.1165 45.756C81.6845 45.972 82.1765 46.28 82.5925 46.68C83.0085 47.072 83.3325 47.532 83.5645 48.06C83.8045 48.588 83.9245 49.168 83.9245 49.8C83.9245 50.432 83.8045 51.016 83.5645 51.552C83.3325 52.08 83.0085 52.54 82.5925 52.932C82.1765 53.324 81.6845 53.628 81.1165 53.844C80.5565 54.06 79.9365 54.168 79.2565 54.168ZM79.2565 52.2C79.5765 52.2 79.8725 52.144 80.1445 52.032C80.4245 51.92 80.6645 51.76 80.8645 51.552C81.0725 51.336 81.2325 51.08 81.3445 50.784C81.4645 50.488 81.5245 50.16 81.5245 49.8C81.5245 49.432 81.4645 49.104 81.3445 48.816C81.2325 48.52 81.0725 48.268 80.8645 48.06C80.6645 47.844 80.4245 47.68 80.1445 47.568C79.8725 47.456 79.5765 47.4 79.2565 47.4C78.9365 47.4 78.6365 47.456 78.3565 47.568C78.0845 47.68 77.8445 47.844 77.6365 48.06C77.4365 48.268 77.2765 48.52 77.1565 48.816C77.0445 49.104 76.9885 49.432 76.9885 49.8C76.9885 50.16 77.0445 50.488 77.1565 50.784C77.2765 51.08 77.4365 51.336 77.6365 51.552C77.8445 51.76 78.0845 51.92 78.3565 52.032C78.6365 52.144 78.9365 52.2 79.2565 52.2Z" fill="black"/>
</g>
<defs>
<clipPath id="clip0_420_2">
<rect width="100" height="100" fill="white"/>
</clipPath>
</defs>
</svg>
