<svg xmlns="http://www.w3.org/2000/svg" width="32" height="32" viewBox="0 0 32 32">
  <rect width="32" height="32" rx="6" fill="#2A9D8F"/>
  <g transform="translate(4, 6)">
    <path d="M18 10c0 0 3-2 5-2c-2 0-5-2-5-2c0 0 0.5 1.2 0.2 2c-0.3 0.8-0.2 2-0.2 2z" fill="#E9853A"/>
    <ellipse cx="12" cy="10" rx="8" ry="6" fill="#FFFFFF"/>
    <ellipse cx="12" cy="10" rx="7" ry="5" fill="#F0F7F6"/>
    <circle cx="8" cy="9" r="1.5" fill="#1A2B3C"/>
    <circle cx="7.5" cy="8.5" r="0.5" fill="#FFFFFF"/>
    <path d="M14 8 Q16 10 14 12" stroke="#2A9D8F" stroke-width="0.8" fill="none"/>
    <path d="M16 7.5 Q18 10 16 12.5" stroke="#2A9D8F" stroke-width="0.6" fill="none"/>
    <path d="M4 10 Q2 7 0 8" stroke="#E9853A" stroke-width="1" fill="none" stroke-linecap="round"/>
    <path d="M4 10 Q2 13 0 12" stroke="#E9853A" stroke-width="1" fill="none" stroke-linecap="round"/>
  </g>
</svg>
